<svg width="58" height="58" viewBox="0 0 58 58" fill="none" xmlns="http://www.w3.org/2000/svg">
<g clip-path="url(#clip0_1759_3527)">
<rect width="58" height="58" rx="29" fill="black"/>
<path d="M43.4543 22.1502C42.4539 22.1503 41.4633 21.9532 40.5391 21.5704C39.6149 21.1876 38.7751 20.6265 38.0678 19.9191C37.3604 19.2118 36.7993 18.372 36.4164 17.4478C36.0336 16.5236 35.8366 15.533 35.8366 14.5327H30.3942V35.8439C30.3932 36.8155 30.0864 37.7622 29.5173 38.5497C28.9482 39.3372 28.1457 39.9256 27.2235 40.2315C26.3013 40.5375 25.3062 40.5454 24.3792 40.2542C23.4522 39.963 22.6405 39.3874 22.0589 38.6091C21.4773 37.8307 21.1555 36.8891 21.139 35.9176C21.1224 34.9461 21.4121 33.9941 21.9669 33.1964C22.5217 32.3987 23.3135 31.7959 24.23 31.4734C25.1465 31.1509 26.1413 31.125 27.0734 31.3994V26.109C25.0926 25.8419 23.0774 26.1855 21.297 27.0938C19.5166 28.0022 18.0556 29.4321 17.1093 31.1926C16.1629 32.9531 15.7761 34.9604 16.0006 36.9465C16.2251 38.9326 17.0502 40.8029 18.3656 42.3078C19.6811 43.8126 21.4243 44.8803 23.3626 45.3683C25.3008 45.8563 27.3418 45.7414 29.2131 45.0389C31.0843 44.3364 32.6966 43.0797 33.8349 41.4368C34.9731 39.7938 35.583 37.8426 35.5831 35.8439L35.741 25.0716C37.9771 26.7132 40.6797 27.5965 43.4536 27.5924L43.4543 22.1502Z" fill="url(#paint0_linear_1759_3527)"/>
<path d="M42.0155 20.6677C39.9952 20.6676 38.0577 19.865 36.6292 18.4364C35.2006 17.0078 34.3981 15.0703 34.3981 13.05H28.9558V34.3612C28.9548 35.3328 28.648 36.2795 28.0789 37.067C27.5098 37.8545 26.7073 38.443 25.7851 38.7489C24.8629 39.0549 23.8678 39.0628 22.9408 38.7716C22.0138 38.4804 21.202 37.9049 20.6204 37.1265C20.0389 36.3482 19.717 35.4065 19.7005 34.435C19.684 33.4636 19.9736 32.5115 20.5284 31.7138C21.0832 30.9162 21.875 30.3134 22.7915 29.9908C23.708 29.6683 24.7028 29.6424 25.6349 29.9168V24.6264C23.6541 24.3593 21.6389 24.7028 19.8585 25.6112C18.0781 26.5195 16.6172 27.9494 15.6708 29.7099C14.7244 31.4704 14.3377 33.4777 14.5622 35.4638C14.7867 37.4499 15.6117 39.3202 16.9272 40.8251C18.2426 42.3299 19.9859 43.3976 21.9241 43.8856C23.8624 44.3736 25.9034 44.2587 27.7746 43.5562C29.6458 42.8537 31.2582 41.5971 32.3964 39.9541C33.5346 38.3111 34.1445 36.3599 34.1446 34.3612L34.3034 23.5891C36.5395 25.2306 39.2421 26.1138 42.016 26.1097L42.0155 20.6677Z" fill="url(#paint1_linear_1759_3527)"/>
<path d="M42.0151 22.014C40.1321 21.6517 38.4549 20.5926 37.3186 19.048C35.8822 17.9239 34.897 16.3217 34.5421 14.5327H30.394V35.8439C30.394 36.8553 30.0629 37.8389 29.4514 38.6446C28.84 39.4503 27.9817 40.0337 27.0076 40.3059C26.0334 40.5781 24.997 40.5241 24.0565 40.152C23.116 39.78 22.323 39.1105 21.7986 38.2456C20.8662 37.6386 20.1832 36.7164 19.8746 35.6475C19.5659 34.5786 19.6522 33.4343 20.1176 32.4237C20.5831 31.4132 21.3966 30.6038 22.4095 30.1435C23.4224 29.6833 24.5671 29.6028 25.6345 29.9169V26.0238C23.8037 26.0474 22.016 26.5822 20.4731 27.5679C18.9302 28.5537 17.6936 29.9511 16.9028 31.6024C16.112 33.2537 15.7985 35.0932 15.9978 36.9132C16.197 38.7332 16.901 40.4613 18.0304 41.9025C19.4641 43.0988 21.2091 43.8616 23.0609 44.1015C24.9127 44.3414 26.7945 44.0484 28.4858 43.2569C30.177 42.4655 31.6076 41.2083 32.6098 39.6327C33.6119 38.0572 34.1442 36.2286 34.1442 34.3613L34.3029 23.5891C36.5391 25.2307 39.2416 26.1139 42.0156 26.1098L42.0151 22.014Z" fill="url(#paint2_linear_1759_3527)"/>
</g>
<defs>
<linearGradient id="paint0_linear_1759_3527" x1="18.1196" y1="42.0917" x2="40.7577" y2="19.4536" gradientUnits="userSpaceOnUse">
<stop stop-color="#B5053C"/>
<stop offset="0.233" stop-color="#C90441"/>
<stop offset="0.737" stop-color="#F0014B"/>
<stop offset="1" stop-color="#FF004F"/>
</linearGradient>
<linearGradient id="paint1_linear_1759_3527" x1="16.3439" y1="40.946" x2="40.1901" y2="17.0998" gradientUnits="userSpaceOnUse">
<stop stop-color="#00B2C9"/>
<stop offset="0.283" stop-color="#00C8D4"/>
<stop offset="0.741" stop-color="#00E6E4"/>
<stop offset="1" stop-color="#00F1EA"/>
</linearGradient>
<linearGradient id="paint2_linear_1759_3527" x1="2.98362" y1="55.7666" x2="55.7675" y2="2.98281" gradientUnits="userSpaceOnUse">
<stop stop-color="#DDE3E4"/>
<stop offset="1" stop-color="#FCF7F7"/>
</linearGradient>
<clipPath id="clip0_1759_3527">
<rect width="58" height="58" fill="white"/>
</clipPath>
</defs>
</svg>
